<mxfile host="app.diagrams.net" modified="2024-04-06T00:12:39.646Z" agent="Mozilla/5.0 (Windows NT 10.0; Win64; x64) AppleWebKit/537.36 (KHTML, like Gecko) Chrome/123.0.0.0 Safari/537.36" version="24.2.2" etag="4FGuwGRFDwytKcUcluMm" type="github">
  <diagram name="Page-1" id="8Y1_yT6jCC7LVOBFc1-B">
    <mxGraphModel>
      <root>
        <mxCell id="0" />
        <mxCell id="1" parent="0" />
      </root>
    </mxGraphModel>
  </diagram>
</mxfile>
